<?xml version="1.0" encoding="utf-8"?>
<!-- Generator: Adobe Illustrator 19.2.0, SVG Export Plug-In . SVG Version: 6.00 Build 0)  -->
<svg version="1.1" id="Layer_1" xmlns="http://www.w3.org/2000/svg" xmlns:xlink="http://www.w3.org/1999/xlink" x="0px" y="0px"
	 viewBox="0 0 405.4 403.2" style="enable-background:new 0 0 405.4 403.2;" xml:space="preserve">
<style type="text/css">
	.st0{fill-rule:evenodd;clip-rule:evenodd;}
</style>
<g>
	<g>
		<path class="st0" d="M142.4,319c-1.4,0.3-2.9,0.4-4.4,0.4c-12.2,0-22.5-8.7-24.7-20.7L85,137.5c-1.2-6.6,0.3-13.2,4.2-18.7
			c3.8-5.5,9.6-9.1,16.2-10.3l80-14.1L185.5,0l-29,4.1l0.5,44.1c-11.3,3.6-21.4,7.7-31.4,13.2L95.3,29L95,28.8L72,46.1l20.4,39.4
			c-8.4,7.9-15.6,16.3-22.1,25.7L28.5,95.8V96l-12.7,25.7l36,25.9c-3.8,10.6-6.5,21.5-7.9,33L-0.2,186h-0.2L0,214.9l43.7,6.4
			c1.4,11.3,3.9,22,7.7,32.8l-36.9,24.9v0.2l13.6,25.4l42.1-13.9c6.5,9.4,13.6,17.8,22,25.7l-21.7,38.6v0.2l23.7,16.8l30.9-31.7
			c10.1,5.5,20.4,9.6,31.4,13v45.1l28.9,4.6l-0.2-91.8L142.4,319z"/>
		<path class="st0" d="M404.9,214.9l0.5-28.9h-0.2l-44.2-5.4c-1.4-11.5-4.1-22.4-7.9-32.9l36.1-26L376.5,96v-0.2l-41.9,15.4
			c-6.5-9.4-13.7-17.8-22.1-25.7l20.4-39.4l-23.1-17.3l-0.2,0.2l-30.2,32.4c-10.1-5.5-20.2-9.6-31.4-13.2l0.5-44.2l-29-4.1l0.2,88.3
			l27.2-4.8l4.2-0.7l3.5,2.4l40.3,28.2l3.5,2.4l0.7,4.2l25,141.5c1.2,6.6-0.3,13.2-4.2,18.7c-3.8,5.5-9.6,9.1-16.2,10.3l-72.7,12.8
			c-3.7,1-7.4,1.8-11.2,2.4l-0.1,97.4l29-4.6v-45.1c11-3.4,21.2-7.4,31.3-13l31.1,31.7l23.6-16.8v-0.2l-21.8-38.6
			c8.4-7.9,15.5-16.3,22-25.7l41.7,13.9l13.1-25.4v-0.2l-36.5-25c3.8-10.8,6.6-21.5,8-32.8L404.9,214.9z"/>
	</g>
	<g>
		<path class="st0" d="M95,135.7l28.4,161.1c1.4,8.1,9.1,13.5,17.2,12.1l161.1-28.4c8.1-1.4,13.5-9.1,12.1-17.2l-25-141.5
			l-40.3-28.2l-141.5,25C99,119.9,93.6,127.6,95,135.7z M267.7,203.5c3.5-0.6,6.8,1.7,7.4,5.2l12,68l-133.9,23.6l-12-68
			c-0.6-3.5,1.7-6.8,5.2-7.4L267.7,203.5z M222,103.6l7,39.8c1.1,6.4-3.1,12.4-9.5,13.5l-77.4,13.7c-6.4,1.1-12.4-3.1-13.5-9.5
			l-7-39.8L222,103.6z"/>
		<path class="st0" d="M195.2,147.2c0.5,2.9,3.3,4.8,6.1,4.3l10.5-1.8c2.9-0.5,4.8-3.3,4.3-6.1l-4.6-26.2c-0.5-2.9-3.3-4.8-6.1-4.3
			l-10.5,1.8c-2.9,0.5-4.8,3.3-4.3,6.1L195.2,147.2z"/>
	</g>
</g>
<g>
	<path d="M167.3,243.5l6.7,38.9l-7.6,1.3l-6.7-38.9l-8.5,1.5l-1.1-6.6l24.7-4.2l1.1,6.6L167.3,243.5z"/>
	<path d="M187,236.7c0.2,1.3,0,2.4-0.7,3.4c-0.7,1-1.6,1.6-2.8,1.8c-1.2,0.2-2.3,0-3.3-0.8c-0.9-0.7-1.5-1.7-1.7-3
		c-0.2-1.2,0-2.4,0.6-3.4c0.6-1,1.6-1.7,2.8-1.9c1.2-0.2,2.3,0.1,3.3,0.8C186.2,234.5,186.8,235.5,187,236.7z M186.4,280.3
		l-5.6-32.8l7.3-1.2l5.6,32.8L186.4,280.3z"/>
	<path d="M207.3,236.6l6.7,38.9l-7.6,1.3l-6.7-38.9l-8.5,1.5l-1.1-6.6l24.7-4.2l1.1,6.6L207.3,236.6z"/>
	<path d="M234.3,232l6.7,38.9l-7.6,1.3l-6.7-38.9l-8.5,1.5l-1.1-6.6l24.7-4.2l1.1,6.6L234.3,232z"/>
	<path d="M267.9,266.3l-0.9-5.2l-0.1,0c-0.3,1.9-1,3.5-2.2,5c-1.2,1.5-2.8,2.4-4.9,2.7c-1.8,0.3-3.3,0.2-4.5-0.4
		c-1.2-0.6-2.2-1.4-3.1-2.6c-0.8-1.1-1.5-2.5-2-4.1c-0.5-1.6-0.9-3.2-1.2-4.9l-3.5-20.6l7.3-1.2l3.5,20.6c0.1,0.9,0.3,1.7,0.6,2.5
		c0.2,0.8,0.5,1.5,0.9,2.1c0.4,0.6,0.9,1.1,1.5,1.4c0.6,0.3,1.3,0.4,2.2,0.2c1.6-0.3,2.8-1.3,3.5-3.1c0.7-1.8,0.8-3.9,0.4-6.4
		l-3.3-19l7.3-1.3l5.6,32.8L267.9,266.3z"/>
</g>
</svg>
